<svg width="15" height="15" viewBox="0 0 15 15" fill="none" xmlns="http://www.w3.org/2000/svg">
<path d="M6.84173 10.2486C6.3041 9.0277 5.77337 7.82279 5.23596 6.60281C7.15754 5.57339 8.74015 4.21826 9.70316 2.20727C10.8435 4.79479 11.9706 7.35306 13.1165 9.95343C12.0639 9.62816 11.0207 9.51294 9.95349 9.58473C8.89182 9.65652 7.86644 9.88341 6.84173 10.2486Z" fill="#1D173A"/>
<path d="M4.67696 6.85364C5.21037 8.06253 5.73887 9.25991 6.2736 10.4715C5.80167 10.6778 5.34444 10.8772 4.88743 11.0775C4.40169 11.2902 3.91729 11.5055 3.43043 11.716C3.09547 11.8609 2.87677 11.7723 2.72933 11.4377C2.33579 10.545 1.94226 9.65209 1.54983 8.75894C1.43001 8.4864 1.49416 8.24666 1.7485 8.13366C2.7173 7.70248 3.69123 7.28327 4.67696 6.85364ZM2.57209 8.54534C2.65895 8.74143 2.73423 8.91138 2.81864 9.10171C3.30772 8.88856 3.77764 8.68382 4.26428 8.47156C4.17786 8.27857 4.09991 8.10419 4.01617 7.91718C3.5282 8.12945 3.06273 8.33197 2.57209 8.54534Z" fill="#1D173A"/>
<path d="M9.89869 1.08988C9.89758 0.839059 10.0247 0.670443 10.2025 0.627014C10.4051 0.577604 10.5956 0.660693 10.6893 0.864983C10.9127 1.35266 11.1265 1.84477 11.3428 2.33578C12.465 4.88297 13.5866 7.43061 14.7086 9.9778C14.8674 10.3383 14.8207 10.5709 14.5652 10.6855C14.3084 10.8007 14.1033 10.678 13.9438 10.3157C12.6316 7.3371 11.3187 4.35851 10.0074 1.37947C9.95838 1.26802 9.92163 1.15148 9.89869 1.08988Z" fill="#1D173A"/>
<path d="M7.83288 14.1595C7.51106 14.3009 7.22799 14.4305 6.93957 14.5464C6.90015 14.5624 6.80862 14.5267 6.78233 14.4875C6.17321 13.5781 5.56966 12.665 4.95251 11.7333C5.28503 11.588 5.60195 11.4497 5.93958 11.3021C6.56474 12.2458 7.18767 13.1859 7.83288 14.1595Z" fill="#1D173A"/>
<path d="M1.08659 9.25813C1.4024 9.97802 1.71308 10.6859 2.02332 11.3941C2.03424 11.4187 2.04025 11.4455 2.04827 11.4708C1.71731 11.5948 1.43113 11.5042 1.28592 11.204C1.09661 10.8127 0.920443 10.4143 0.75853 10.0108C0.634478 9.70194 0.75608 9.4396 1.08659 9.25813Z" fill="#1D173A"/>
</svg>
