<svg width="64" height="37" viewBox="0 0 64 37" fill="none" xmlns="http://www.w3.org/2000/svg">
<path d="M27.1022 5.99657V7.17827C27.1028 7.21594 27.0923 7.25289 27.0722 7.28411C27.0521 7.31532 27.0232 7.3393 26.9897 7.35278C26.9561 7.36627 26.9193 7.36861 26.8844 7.3595C26.8495 7.35038 26.8181 7.33024 26.7945 7.30181C25.9094 6.24258 24.7288 5.59587 23.4323 5.59587C20.6926 5.59587 18.4709 8.48244 18.4709 12.0415C18.4709 15.6006 20.6926 18.4871 23.4323 18.4871C24.7288 18.4871 25.9094 17.8426 26.7945 16.7812C26.8181 16.7528 26.8494 16.7327 26.8842 16.7236C26.919 16.7144 26.9556 16.7167 26.9892 16.73C27.0227 16.7434 27.0515 16.7672 27.0718 16.7982C27.092 16.8293 27.1026 16.8661 27.1022 16.9036V18.0853C27.1022 18.1928 27.143 18.2958 27.2155 18.3717C27.288 18.4477 27.3864 18.4903 27.4889 18.4903H31.1815C31.284 18.4903 31.3824 18.4477 31.4549 18.3717C31.5274 18.2958 31.5682 18.1928 31.5682 18.0853V5.99657C31.5679 5.88935 31.527 5.78661 31.4546 5.71089C31.3821 5.63517 31.2839 5.59265 31.1815 5.59265H27.4848C27.3832 5.59378 27.286 5.6368 27.2144 5.7124C27.1428 5.788 27.1025 5.89009 27.1022 5.99657ZM27.1022 13.4756C26.757 14.0351 26.2308 14.4456 25.6201 14.6318C25.0094 14.8181 24.3551 14.7676 23.7771 14.4897C23.199 14.2118 22.7359 13.7251 22.4726 13.1187C22.2093 12.5123 22.1634 11.8268 22.3434 11.1879C22.5233 10.5489 22.9171 9.99929 23.4525 9.63965C23.9879 9.28002 24.6291 9.13448 25.2586 9.22968C25.8882 9.32489 26.4639 9.65448 26.8802 10.1581C27.2966 10.6616 27.5258 11.3055 27.5259 11.9717C27.526 12.5053 27.3789 13.0276 27.1022 13.4756Z" fill="url(#paint0_linear_165_2134)"/>
<path d="M35.3264 0H35.272C34.0535 0 33.0657 1.03456 33.0657 2.31075C33.0657 3.58695 34.0535 4.62151 35.272 4.62151H35.3264C36.5449 4.62151 37.5327 3.58695 37.5327 2.31075C37.5327 1.03456 36.5449 0 35.3264 0Z" fill="url(#paint1_linear_165_2134)"/>
<path d="M37.146 5.59265H33.4524C33.2388 5.59265 33.0657 5.77397 33.0657 5.99765V18.0843C33.0657 18.3079 33.2388 18.4893 33.4524 18.4893H37.146C37.3595 18.4893 37.5327 18.3079 37.5327 18.0843V5.99765C37.5327 5.77397 37.3595 5.59265 37.146 5.59265Z" fill="url(#paint2_linear_165_2134)"/>
<path d="M7.12251 4.51086H1.41547V2.86723C1.41534 2.81409 1.42522 2.76145 1.44454 2.71232C1.46386 2.66319 1.49225 2.61853 1.52807 2.58091C1.5639 2.54329 1.60646 2.51344 1.65332 2.49308C1.70017 2.47271 1.75041 2.46223 1.80114 2.46223H5.67011C5.73521 2.46218 5.79926 2.4794 5.85629 2.51227C5.91332 2.54514 5.96148 2.5926 5.99628 2.65022L7.12251 4.51086Z" fill="url(#paint3_linear_165_2134)"/>
<path d="M15.719 2.86723V12.9235H7.75024L5.88243 9.83924V18.3056C5.88243 18.3587 5.87242 18.4113 5.85297 18.4604C5.83353 18.5095 5.80503 18.554 5.76911 18.5916C5.73319 18.6291 5.69055 18.6588 5.64364 18.679C5.59673 18.6993 5.54647 18.7096 5.49574 18.7095H1.80319C1.70091 18.7095 1.60281 18.6669 1.53049 18.5912C1.45816 18.5154 1.41753 18.4127 1.41753 18.3056V8.19775H9.3565L11.2551 11.3325V2.86723C11.2551 2.75981 11.2958 2.6568 11.3683 2.58085C11.4409 2.5049 11.5392 2.46223 11.6418 2.46223H15.3343C15.4365 2.4628 15.5343 2.50572 15.6064 2.58161C15.6785 2.6575 15.719 2.76018 15.719 2.86723Z" fill="url(#paint4_linear_165_2134)"/>
<path d="M10.2222 5.18443H0.386691C0.173128 5.18443 0 5.36575 0 5.58943V7.11919C0 7.34286 0.173128 7.52419 0.386691 7.52419H10.2222C10.4358 7.52419 10.6089 7.34286 10.6089 7.11919V5.58943C10.6089 5.36575 10.4358 5.18443 10.2222 5.18443Z" fill="url(#paint5_linear_165_2134)"/>
<path d="M16.9775 5.58943V7.52311H16.3621V5.18443H16.5898C16.6406 5.18429 16.691 5.19466 16.7381 5.21495C16.7851 5.23524 16.8279 5.26505 16.8639 5.30267C16.8999 5.34029 16.9285 5.38499 16.948 5.43419C16.9675 5.4834 16.9775 5.53615 16.9775 5.58943Z" fill="url(#paint6_linear_165_2134)"/>
<path d="M0.772357 14.002C0.772357 13.7784 0.599459 13.597 0.386179 13.597C0.172898 13.597 0 13.7784 0 14.002V15.5318C0 15.7555 0.172898 15.9368 0.386179 15.9368C0.599459 15.9368 0.772357 15.7555 0.772357 15.5318V14.002Z" fill="url(#paint7_linear_165_2134)"/>
<path d="M16.5908 13.597H6.91224C6.69867 13.597 6.52555 13.7784 6.52555 14.002V15.5318C6.52555 15.7555 6.69867 15.9368 6.91224 15.9368H16.5908C16.8044 15.9368 16.9775 15.7555 16.9775 15.5318V14.002C16.9775 13.7784 16.8044 13.597 16.5908 13.597Z" fill="url(#paint8_linear_165_2134)"/>
<path d="M15.719 16.6104V18.3056C15.719 18.3587 15.7089 18.4113 15.6895 18.4604C15.6701 18.5095 15.6416 18.554 15.6056 18.5916C15.5697 18.6291 15.5271 18.6588 15.4802 18.679C15.4333 18.6993 15.383 18.7096 15.3323 18.7095H11.4654C11.4004 18.7094 11.3365 18.6923 11.2795 18.6596C11.2225 18.627 11.1742 18.5798 11.1392 18.5226L9.98115 16.6104H15.719Z" fill="url(#paint9_linear_165_2134)"/>
<path d="M57.5863 5.99657V7.17827C57.5868 7.21594 57.5763 7.25289 57.5562 7.28411C57.5361 7.31532 57.5073 7.3393 57.4737 7.35278C57.4401 7.36627 57.4033 7.36861 57.3684 7.3595C57.3335 7.35038 57.3021 7.33024 57.2785 7.30181C56.3944 6.24366 55.2148 5.59695 53.9183 5.59695C51.1776 5.59695 48.957 8.48351 48.957 12.0426C48.957 15.6016 51.1776 18.4882 53.9183 18.4882C55.2148 18.4882 56.3944 17.8436 57.2785 16.7833C57.3021 16.755 57.3334 16.7349 57.3682 16.7257C57.403 16.7166 57.4396 16.7188 57.4732 16.7322C57.5067 16.7455 57.5355 16.7693 57.5558 16.8004C57.576 16.8314 57.5866 16.8682 57.5863 16.9058V18.0875C57.5863 18.1949 57.627 18.2979 57.6995 18.3739C57.772 18.4498 57.8704 18.4925 57.9729 18.4925H61.6655C61.7162 18.4925 61.7665 18.482 61.8133 18.4616C61.8602 18.4413 61.9027 18.4114 61.9386 18.3738C61.9744 18.3362 62.0028 18.2915 62.0221 18.2424C62.0414 18.1933 62.0513 18.1406 62.0512 18.0875V5.99657C62.0512 5.88945 62.0105 5.78671 61.9382 5.71096C61.8659 5.63521 61.7678 5.59265 61.6655 5.59265H57.9729C57.8706 5.59265 57.7724 5.63517 57.6999 5.71089C57.6274 5.78661 57.5865 5.88935 57.5863 5.99657ZM57.5863 13.4789C57.2403 14.0392 56.7131 14.4502 56.1013 14.6365C55.4895 14.8229 54.8341 14.7721 54.2552 14.4934C53.6763 14.2148 53.2126 13.727 52.9492 13.1194C52.6857 12.5118 52.6402 11.8251 52.8209 11.1852C53.0015 10.5453 53.3963 9.99501 53.9329 9.63519C54.4695 9.27538 55.1119 9.13013 55.7424 9.22606C56.3729 9.322 56.9493 9.65269 57.3659 10.1575C57.7826 10.6624 58.0115 11.3076 58.0109 11.9749C58.0106 12.5086 57.8632 13.0308 57.5863 13.4789Z" fill="url(#paint10_linear_165_2134)"/>
<path d="M47.401 5.59279L47.401 10.7932C45.8522 10.5203 44.5464 10.6707 43.5033 11.3636V18.0853C43.5033 18.1925 43.4627 18.2952 43.3903 18.371C43.318 18.4467 43.2199 18.4893 43.1176 18.4893H39.4251C39.3744 18.4894 39.3241 18.4791 39.2772 18.4588C39.2303 18.4386 39.1876 18.4089 39.1517 18.3713C39.1158 18.3338 39.0873 18.2892 39.0679 18.2402C39.0484 18.1911 39.0384 18.1385 39.0384 18.0853V5.99765C39.0384 5.89024 39.0791 5.78722 39.1517 5.71127C39.2242 5.63532 39.3225 5.59265 39.4251 5.59265H43.1176C43.1684 5.59265 43.2186 5.60313 43.2655 5.6235C43.3123 5.64386 43.3549 5.67371 43.3907 5.71134C43.4265 5.74896 43.4549 5.79361 43.4742 5.84275C43.4936 5.89188 43.5034 5.94452 43.5033 5.99765V7.54138C44.6572 6.44777 45.6932 5.68396 46.9394 5.59372L47.401 5.59279Z" fill="url(#paint11_linear_165_2134)"/>
<path d="M64 28.6186V36.5918C64 36.699 63.9594 36.8019 63.8871 36.8778C63.8148 36.9537 63.7167 36.9965 63.6143 36.9968H59.9218C59.8194 36.9965 59.7213 36.9537 59.649 36.8778C59.5767 36.8019 59.5361 36.699 59.5361 36.5918V30.1698C59.5361 29.9375 59.4924 29.7074 59.4074 29.4928C59.3224 29.2782 59.1978 29.0832 59.0408 28.9191C58.8838 28.7549 58.6975 28.6248 58.4924 28.5362C58.2873 28.4476 58.0676 28.4022 57.8458 28.4026C57.6241 28.4025 57.4046 28.4481 57.1997 28.5368C56.9949 28.6256 56.8088 28.7557 56.652 28.9198C56.4952 29.084 56.3708 29.2788 56.286 29.4933C56.2011 29.7078 56.1574 29.9376 56.1574 30.1698V36.5918C56.1576 36.6449 56.1477 36.6976 56.1284 36.7467C56.1091 36.7958 56.0807 36.8405 56.0448 36.8781C56.009 36.9157 55.9665 36.9456 55.9196 36.9659C55.8727 36.9863 55.8225 36.9968 55.7718 36.9968H52.0792C51.9767 36.9968 51.8783 36.9541 51.8058 36.8782C51.7333 36.8022 51.6925 36.6992 51.6925 36.5918V30.1698C51.6925 29.9376 51.6489 29.7078 51.564 29.4933C51.4791 29.2788 51.3548 29.084 51.198 28.9198C51.0412 28.7557 50.8551 28.6256 50.6502 28.5368C50.4454 28.4481 50.2259 28.4025 50.0042 28.4026C49.7818 28.4012 49.5613 28.4459 49.3554 28.534C49.1495 28.6222 48.9623 28.7522 48.8045 28.9164C48.6467 29.0806 48.5215 29.2759 48.4361 29.491C48.3507 29.7061 48.3067 29.9368 48.3067 30.1698V36.5918C48.3067 36.699 48.2661 36.8019 48.1938 36.8778C48.1215 36.9537 48.0234 36.9965 47.921 36.9968H44.2285C44.1777 36.9968 44.1275 36.9863 44.0806 36.9659C44.0338 36.9456 43.9912 36.9157 43.9554 36.8781C43.9196 36.8405 43.8912 36.7958 43.8719 36.7467C43.8526 36.6976 43.8427 36.6449 43.8428 36.5918V24.1152C43.8428 24.0081 43.8834 23.9053 43.9558 23.8296C44.0281 23.7538 44.1262 23.7113 44.2285 23.7113H47.921C48.0233 23.7113 48.1214 23.7538 48.1937 23.8296C48.2661 23.9053 48.3067 24.0081 48.3067 24.1152V25.5601C49.0842 24.5675 50.3396 23.9659 51.6843 23.9584C53.2024 23.9487 54.8353 24.6953 56.021 26.4872C56.0621 26.4023 56.1062 26.3196 56.1513 26.238C56.8416 25.0434 58.1381 24.3236 59.5279 24.2162C59.5966 24.2108 59.6643 24.2076 59.7331 24.2055C62.0789 24.126 64 26.1617 64 28.6186Z" fill="url(#paint12_linear_165_2134)"/>
<path d="M10.1012 28.8742C10.6163 28.8742 11.1263 28.7666 11.6014 28.5579C12.0765 28.3492 12.5071 28.0434 12.8681 27.6585C13.2291 27.2736 13.5133 26.8172 13.7041 26.316C13.8949 25.8148 13.9885 25.2788 13.9794 24.7394C13.9455 22.5092 12.1444 20.7549 10.015 20.7549H1.80114C1.69886 20.7549 1.60076 20.7974 1.52843 20.8732C1.45611 20.949 1.41547 21.0517 1.41547 21.1588V36.5961C1.41547 36.7032 1.45611 36.8059 1.52843 36.8817C1.60076 36.9574 1.69886 37 1.80114 37H10.1012C11.1294 37 12.1156 36.5722 12.8427 35.8106C13.5698 35.0491 13.9783 34.0162 13.9783 32.9393C13.9783 31.8623 13.5698 30.8294 12.8427 30.0679C12.1156 29.3063 11.1294 28.8785 10.1012 28.8785V28.8742ZM9.29393 32.5568C9.1797 32.6771 9.04383 32.7725 8.89418 32.8374C8.74452 32.9023 8.58406 32.9355 8.42208 32.935H5.88243V30.3567H8.42208C8.66617 30.3559 8.90498 30.4311 9.10818 30.5727C9.31137 30.7144 9.46975 30.9161 9.5632 31.1523C9.65666 31.3885 9.68095 31.6484 9.63301 31.8991C9.58506 32.1497 9.46703 32.3798 9.29393 32.5601V32.5568ZM9.29393 26.8073C9.1795 26.9273 9.04359 27.0225 8.89398 27.0874C8.74437 27.1523 8.58401 27.1856 8.42208 27.1855H5.88243V24.6072H8.42208C8.66596 24.6066 8.90451 24.6819 9.10748 24.8235C9.31045 24.9651 9.46868 25.1666 9.56209 25.4026C9.6555 25.6385 9.67988 25.8982 9.63213 26.1487C9.58439 26.3992 9.46668 26.6292 9.29393 26.8095V26.8073Z" fill="url(#paint13_linear_165_2134)"/>
<path d="M21.8188 23.7124C20.5643 23.7124 19.3379 24.102 18.2948 24.832C17.2516 25.5621 16.4387 26.5997 15.9586 27.8136C15.4785 29.0276 15.353 30.3634 15.5978 31.6521C15.8426 32.9408 16.4469 34.1245 17.334 35.0535C18.2212 35.9826 19.3515 36.6152 20.582 36.8714C21.8125 37.1276 23.0879 36.9959 24.2469 36.4929C25.4059 35.99 26.3965 35.1383 27.0933 34.0457C27.7902 32.9531 28.162 31.6685 28.1618 30.3546C28.1615 28.5928 27.4931 26.9034 26.3036 25.6578C25.1141 24.4121 23.5009 23.7124 21.8188 23.7124ZM21.8188 33.4882C21.2271 33.4882 20.6486 33.3044 20.1566 32.9601C19.6645 32.6158 19.2811 32.1264 19.0546 31.5538C18.8281 30.9812 18.7689 30.3511 18.8843 29.7432C18.9998 29.1354 19.2847 28.577 19.7032 28.1388C20.1216 27.7005 20.6547 27.4021 21.2351 27.2811C21.8155 27.1602 22.4171 27.2223 22.9638 27.4595C23.5105 27.6966 23.9778 28.0983 24.3066 28.6136C24.6353 29.1289 24.8108 29.7348 24.8108 30.3546C24.8108 30.7661 24.7334 31.1736 24.5831 31.5538C24.4327 31.934 24.2123 32.2794 23.9345 32.5704C23.6567 32.8614 23.3268 33.0922 22.9638 33.2497C22.6008 33.4072 22.2117 33.4882 21.8188 33.4882Z" fill="url(#paint14_linear_165_2134)"/>
<path d="M35.9982 23.7124C34.7436 23.7124 33.5173 24.102 32.4741 24.832C31.431 25.5621 30.618 26.5997 30.138 27.8136C29.6579 29.0276 29.5324 30.3634 29.7772 31.6521C30.022 32.9408 30.6262 34.1245 31.5134 35.0535C32.4006 35.9826 33.5309 36.6152 34.7614 36.8714C35.9919 37.1276 37.2673 36.9959 38.4263 36.4929C39.5853 35.99 40.5758 35.1383 41.2727 34.0457C41.9695 32.9531 42.3414 31.6685 42.3412 30.3546C42.3409 28.5928 41.6725 26.9034 40.483 25.6578C39.2935 24.4121 37.6803 23.7124 35.9982 23.7124ZM35.9982 33.4882C35.4064 33.4882 34.828 33.3044 34.3359 32.9601C33.8439 32.6158 33.4604 32.1264 33.234 31.5538C33.0075 30.9812 32.9483 30.3511 33.0637 29.7432C33.1792 29.1354 33.4641 28.577 33.8825 28.1388C34.301 27.7005 34.8341 27.4021 35.4145 27.2811C35.9949 27.1602 36.5965 27.2223 37.1432 27.4595C37.6899 27.6966 38.1572 28.0983 38.4859 28.6136C38.8147 29.1289 38.9902 29.7348 38.9902 30.3546C38.9902 31.1857 38.675 31.9827 38.1139 32.5704C37.5527 33.1581 36.7917 33.4882 35.9982 33.4882Z" fill="url(#paint15_linear_165_2134)"/>
<defs>
<linearGradient id="paint0_linear_165_2134" x1="32" y1="0" x2="32" y2="37" gradientUnits="userSpaceOnUse">
<stop stop-color="#1ED760"/>
<stop offset="1" stop-color="#107132"/>
</linearGradient>
<linearGradient id="paint1_linear_165_2134" x1="32" y1="0" x2="32" y2="37" gradientUnits="userSpaceOnUse">
<stop stop-color="#1ED760"/>
<stop offset="1" stop-color="#107132"/>
</linearGradient>
<linearGradient id="paint2_linear_165_2134" x1="32" y1="0" x2="32" y2="37" gradientUnits="userSpaceOnUse">
<stop stop-color="#1ED760"/>
<stop offset="1" stop-color="#107132"/>
</linearGradient>
<linearGradient id="paint3_linear_165_2134" x1="32" y1="0" x2="32" y2="37" gradientUnits="userSpaceOnUse">
<stop stop-color="#1ED760"/>
<stop offset="1" stop-color="#107132"/>
</linearGradient>
<linearGradient id="paint4_linear_165_2134" x1="32" y1="0" x2="32" y2="37" gradientUnits="userSpaceOnUse">
<stop stop-color="#1ED760"/>
<stop offset="1" stop-color="#107132"/>
</linearGradient>
<linearGradient id="paint5_linear_165_2134" x1="32" y1="0" x2="32" y2="37" gradientUnits="userSpaceOnUse">
<stop stop-color="#1ED760"/>
<stop offset="1" stop-color="#107132"/>
</linearGradient>
<linearGradient id="paint6_linear_165_2134" x1="32" y1="0" x2="32" y2="37" gradientUnits="userSpaceOnUse">
<stop stop-color="#1ED760"/>
<stop offset="1" stop-color="#107132"/>
</linearGradient>
<linearGradient id="paint7_linear_165_2134" x1="32" y1="0" x2="32" y2="37" gradientUnits="userSpaceOnUse">
<stop stop-color="#1ED760"/>
<stop offset="1" stop-color="#107132"/>
</linearGradient>
<linearGradient id="paint8_linear_165_2134" x1="32" y1="0" x2="32" y2="37" gradientUnits="userSpaceOnUse">
<stop stop-color="#1ED760"/>
<stop offset="1" stop-color="#107132"/>
</linearGradient>
<linearGradient id="paint9_linear_165_2134" x1="32" y1="0" x2="32" y2="37" gradientUnits="userSpaceOnUse">
<stop stop-color="#1ED760"/>
<stop offset="1" stop-color="#107132"/>
</linearGradient>
<linearGradient id="paint10_linear_165_2134" x1="32" y1="0" x2="32" y2="37" gradientUnits="userSpaceOnUse">
<stop stop-color="#1ED760"/>
<stop offset="1" stop-color="#107132"/>
</linearGradient>
<linearGradient id="paint11_linear_165_2134" x1="32" y1="0" x2="32" y2="37" gradientUnits="userSpaceOnUse">
<stop stop-color="#1ED760"/>
<stop offset="1" stop-color="#107132"/>
</linearGradient>
<linearGradient id="paint12_linear_165_2134" x1="32" y1="0" x2="32" y2="37" gradientUnits="userSpaceOnUse">
<stop stop-color="#1ED760"/>
<stop offset="1" stop-color="#107132"/>
</linearGradient>
<linearGradient id="paint13_linear_165_2134" x1="32" y1="0" x2="32" y2="37" gradientUnits="userSpaceOnUse">
<stop stop-color="#1ED760"/>
<stop offset="1" stop-color="#107132"/>
</linearGradient>
<linearGradient id="paint14_linear_165_2134" x1="32" y1="0" x2="32" y2="37" gradientUnits="userSpaceOnUse">
<stop stop-color="#1ED760"/>
<stop offset="1" stop-color="#107132"/>
</linearGradient>
<linearGradient id="paint15_linear_165_2134" x1="32" y1="0" x2="32" y2="37" gradientUnits="userSpaceOnUse">
<stop stop-color="#1ED760"/>
<stop offset="1" stop-color="#107132"/>
</linearGradient>
</defs>
</svg>
