<svg id="Layer_1" data-name="Layer 1" xmlns="http://www.w3.org/2000/svg" viewBox="0 0 1000 1000"><defs><style>.cls-1{fill:#1ed760;}</style></defs><path class="cls-1" d="M333.8,376.94H179.11a5.26,5.26,0,0,0-5.1,5.27v14.35a5.27,5.27,0,0,0,5.28,5.27H333.62a5.28,5.28,0,0,0,5.28-5.27V382.21A5.27,5.27,0,0,0,333.8,376.94Zm-53.61,28.21v9.1a4.68,4.68,0,0,1-8.61,2.55L264,405.15H187.87v47h44.85v-8.47a4.68,4.68,0,0,1,8.59-2.58l7.29,11.05H325v-47Zm53.43,50.28H179.29a5.27,5.27,0,0,0-5.28,5.28v14.34a5.26,5.26,0,0,0,5.1,5.27H333.8a5.27,5.27,0,0,0,5.1-5.27V460.71A5.28,5.28,0,0,0,333.62,455.43ZM278.8,497.86a4.7,4.7,0,0,0,3.91,2.1h37.64a4.69,4.69,0,0,0,4.69-4.68V483.64H269.41Zm15,98.78a4.82,4.82,0,0,1-.29-8.19,31.16,31.16,0,0,0,7.56-7.09q6.56-8.58,6.56-21.11,0-18.18-12.52-27.68t-34.34-9.49H232.72V483.64H187.87V661.18a4.93,4.93,0,0,0,4.93,4.92h70q23.22,0,35.65-10.2t12.43-29a34.85,34.85,0,0,0-7.17-21.71A31.73,31.73,0,0,0,293.83,596.64Zm-61.11-33.08a4.93,4.93,0,0,1,4.93-4.93h12.44c4,0,7,.85,9,2.53s2.93,4.27,2.93,7.78q0,5-2.93,7.47c-1.95,1.62-4.95,2.42-9,2.42H237.65a4.92,4.92,0,0,1-4.93-4.92Zm29.39,64.26q-2.92,2.32-9,2.33H237.65a4.93,4.93,0,0,1-4.93-4.93V614.87a4.93,4.93,0,0,1,4.93-4.93h15.47q11.92,0,11.92,10.31C265,623.75,264.06,626.28,262.11,627.82Zm58.24-270.89H284.87a4.69,4.69,0,0,0-4.68,4.68v12H325v-12A4.69,4.69,0,0,0,320.35,356.93Zm-86.25,2.13a4.67,4.67,0,0,0-3.93-2.13H192.55a4.69,4.69,0,0,0-4.68,4.68v12h55.68Z"/><path class="cls-1" d="M458.36,386H421.81a4,4,0,0,0-4.05,4.05,4,4,0,0,1-6.7,3.05,32.76,32.76,0,0,0-5.62-4q-8.08-4.54-19.19-4.54a43.06,43.06,0,0,0-24,7q-10.71,7-16.87,20.2T339.18,443q0,18,6.16,31.21t16.87,20.2a43.06,43.06,0,0,0,24,7q11.1,0,19.19-4.54a32.76,32.76,0,0,0,5.62-4,3.92,3.92,0,0,1,2.63-1,4,4,0,0,1,4.07,4.06,4,4,0,0,0,4.05,4h36.55a4.05,4.05,0,0,0,4.05-4V390.07A4.05,4.05,0,0,0,458.36,386ZM400.2,467.88A24.89,24.89,0,1,1,425.09,443,24.89,24.89,0,0,1,400.2,467.88Z"/><path class="cls-1" d="M486.44,370.66a20.11,20.11,0,0,1-7.07-15.75,20.65,20.65,0,0,1,7.07-16.06q7.06-6.36,18.79-6.37,11.5,0,18.58,6.37a20.68,20.68,0,0,1,7.07,16.06,20.15,20.15,0,0,1-7.07,15.75q-7.06,6.27-18.58,6.27Q493.5,376.93,486.44,370.66Zm41,24.66v95.33a9.3,9.3,0,0,1-9.3,9.3H491.9a9.3,9.3,0,0,1-9.3-9.3V395.32a9.3,9.3,0,0,1,9.3-9.3h26.25A9.3,9.3,0,0,1,527.45,395.32Z"/><path class="cls-1" d="M609.26,391.17a40.48,40.48,0,0,1,15.68-5.64,4.35,4.35,0,0,1,4.93,4.29v38.94a4.33,4.33,0,0,1-4.33,4.33h-8.4q-12.72,0-18.69,4.44t-6,15.76v42.34a4.32,4.32,0,0,1-4.33,4.32H552a4.31,4.31,0,0,1-4.32-4.32V390.34A4.31,4.31,0,0,1,552,386h36.2a4.32,4.32,0,0,1,4.33,4.32v5a4.32,4.32,0,0,0,7.34,3.08A53.22,53.22,0,0,1,609.26,391.17Z"/><path class="cls-1" d="M755.11,386H718.57a4,4,0,0,0-4.05,4.05,4,4,0,0,1-6.71,3.05,32.37,32.37,0,0,0-5.62-4q-8.07-4.54-19.19-4.54a43.08,43.08,0,0,0-24,7q-10.71,7-16.87,20.2T635.93,443q0,18,6.16,31.21T659,494.4a43.08,43.08,0,0,0,24,7q11.12,0,19.19-4.54a32.37,32.37,0,0,0,5.62-4,4,4,0,0,1,2.64-1,4.06,4.06,0,0,1,4.07,4.06,4,4,0,0,0,4.05,4h36.54a4,4,0,0,0,4-4V390.07A4,4,0,0,0,755.11,386Zm-58.56,81.86A24.89,24.89,0,1,1,721.44,443,24.89,24.89,0,0,1,696.55,467.88Z"/><path class="cls-1" d="M432.61,577.92a52.26,52.26,0,0,0-21.52-20.3,71.08,71.08,0,0,0-61.81,0,52.26,52.26,0,0,0-21.52,20.3q-7.77,13.25-7.78,31t7.78,31a52.15,52.15,0,0,0,21.52,20.31,71.08,71.08,0,0,0,61.81,0,52.15,52.15,0,0,0,21.52-20.31q7.77-13.23,7.78-31T432.61,577.92ZM380.19,638.1a29.17,29.17,0,1,1,29.16-29.17A29.17,29.17,0,0,1,380.19,638.1Z"/><path class="cls-1" d="M561.09,578.13a52.22,52.22,0,0,0-21.52-20.31,71.08,71.08,0,0,0-61.81,0,52.22,52.22,0,0,0-21.52,20.31q-7.77,13.23-7.78,31t7.78,31a52.13,52.13,0,0,0,21.52,20.3,71.08,71.08,0,0,0,61.81,0,52.13,52.13,0,0,0,21.52-20.3q7.77-13.23,7.78-31T561.09,578.13Zm-53,61a29.17,29.17,0,1,1,29.16-29.17A29.16,29.16,0,0,1,508.13,639.11Z"/><path class="cls-1" d="M769,564.49q12,13.13,12,35.55v61.74a4.32,4.32,0,0,1-4.32,4.32h-36a4.32,4.32,0,0,1-4.32-4.32V605.7q0-7.28-4.35-11.42t-11.61-4.14q-7.49,0-11.72,4.14t-4.24,11.42v56.08a4.33,4.33,0,0,1-4.32,4.32h-36a4.33,4.33,0,0,1-4.33-4.32V605.7q0-7.28-4.34-11.42t-11.61-4.14q-7.48,0-11.72,4.14t-4.24,11.42v56.08a4.33,4.33,0,0,1-4.33,4.32h-36.2a4.32,4.32,0,0,1-4.32-4.32V556.49a4.32,4.32,0,0,1,4.32-4.33h36.2a4.33,4.33,0,0,1,4.33,4.33h0a4.31,4.31,0,0,0,7,3.41,38.33,38.33,0,0,1,6.25-4.1,41.46,41.46,0,0,1,19.69-4.44,43.64,43.64,0,0,1,21.82,5.35,39.75,39.75,0,0,1,12,10.37,4.3,4.3,0,0,0,6.62.28,52,52,0,0,1,12.48-10.25,41.15,41.15,0,0,1,21.42-5.75Q756.93,551.36,769,564.49Z"/></svg>