<svg width="50" height="50" viewBox="0 0 50 50" fill="none" xmlns="http://www.w3.org/2000/svg">
<rect width="50" height="50" rx="25" fill="#0000FF"/>
<path d="M6.76847 36V32.6761L14.5348 25.4851C15.1953 24.8459 15.7493 24.2706 16.1967 23.7592C16.6513 23.2479 16.9957 22.7472 17.2301 22.2571C17.4645 21.7599 17.5817 21.2237 17.5817 20.6484C17.5817 20.0092 17.4361 19.4588 17.1449 18.9972C16.8537 18.5284 16.456 18.1697 15.9517 17.9212C15.4474 17.6655 14.8757 17.5376 14.2365 17.5376C13.5689 17.5376 12.9865 17.6726 12.4893 17.9425C11.9922 18.2124 11.6087 18.5994 11.3388 19.1037C11.0689 19.608 10.9339 20.2081 10.9339 20.9041H6.5554C6.5554 19.4766 6.87855 18.2372 7.52486 17.1861C8.17116 16.1349 9.0767 15.3217 10.2415 14.7464C11.4063 14.1712 12.7486 13.8835 14.2685 13.8835C15.831 13.8835 17.1911 14.1605 18.3487 14.7145C19.5135 15.2614 20.419 16.0213 21.0653 16.9943C21.7116 17.9673 22.0348 19.0824 22.0348 20.3395C22.0348 21.1634 21.8714 21.9766 21.5447 22.7791C21.2251 23.5817 20.6534 24.473 19.8295 25.4531C19.0057 26.4261 17.8445 27.5945 16.3459 28.9581L13.1605 32.0795V32.2287H22.3224V36H6.76847ZM34.0385 36.2983C32.9164 36.2912 31.8333 36.103 30.7892 35.7337C29.7523 35.3643 28.8219 34.7642 27.998 33.9332C27.1742 33.1023 26.5208 32.0014 26.0378 30.6307C25.562 29.2599 25.324 27.5767 25.324 25.581C25.3311 23.7486 25.5407 22.1115 25.9526 20.6697C26.3716 19.2209 26.9682 17.9922 27.7424 16.9837C28.5236 15.9751 29.4576 15.2081 30.5442 14.6825C31.6309 14.1499 32.8489 13.8835 34.1983 13.8835C35.6543 13.8835 36.9398 14.1676 38.0549 14.7358C39.1699 15.2969 40.0648 16.0604 40.7395 17.0263C41.4213 17.9922 41.8333 19.0753 41.9753 20.2756H37.4263C37.2488 19.5156 36.8759 18.919 36.3077 18.4858C35.7395 18.0526 35.0364 17.8359 34.1983 17.8359C32.7779 17.8359 31.6983 18.4538 30.9597 19.6896C30.2282 20.9254 29.8553 22.6051 29.8411 24.7287H29.9902C30.3169 24.0824 30.7573 23.532 31.3113 23.0774C31.8723 22.6158 32.508 22.2642 33.2182 22.0227C33.9355 21.7741 34.6919 21.6499 35.4874 21.6499C36.78 21.6499 37.9306 21.9553 38.9391 22.5661C39.9476 23.1697 40.7431 24.0007 41.3255 25.0589C41.9078 26.1172 42.199 27.3281 42.199 28.6918C42.199 30.169 41.8546 31.483 41.1657 32.6335C40.4838 33.7841 39.5286 34.6861 38.2999 35.3395C37.0783 35.9858 35.6578 36.3054 34.0385 36.2983ZM34.0172 32.6761C34.7275 32.6761 35.3631 32.5057 35.9242 32.1648C36.4853 31.8239 36.9256 31.3622 37.2452 30.7798C37.5648 30.1974 37.7246 29.544 37.7246 28.8196C37.7246 28.0952 37.5648 27.4453 37.2452 26.87C36.9327 26.2947 36.4995 25.8366 35.9455 25.4957C35.3915 25.1548 34.7594 24.9844 34.0492 24.9844C33.5165 24.9844 33.0229 25.0838 32.5684 25.2827C32.1209 25.4815 31.7267 25.7585 31.3858 26.1136C31.052 26.4687 30.7892 26.8807 30.5975 27.3494C30.4057 27.8111 30.3098 28.3047 30.3098 28.8303C30.3098 29.5334 30.4696 30.1761 30.7892 30.7585C31.1159 31.3409 31.5563 31.8061 32.1103 32.1541C32.6713 32.5021 33.307 32.6761 34.0172 32.6761Z" fill="white"/>
</svg>
