<svg width="50" height="50" viewBox="0 0 50 50" fill="none" xmlns="http://www.w3.org/2000/svg">
<rect width="50" height="50" rx="25" fill="#A4A430" fill-opacity="0.97"/>
<path d="M24.9077 36.2983C23.267 36.2983 21.8075 36.032 20.5291 35.4993C19.2578 34.9595 18.2599 34.2244 17.5355 33.294C16.8111 32.3636 16.4489 31.3089 16.4489 30.13C16.4489 29.2209 16.6548 28.3864 17.0668 27.6264C17.4858 26.8594 18.054 26.2237 18.7713 25.7195C19.4886 25.2081 20.2912 24.8814 21.179 24.7393V24.5902C20.0142 24.3558 19.0696 23.7912 18.3452 22.8963C17.6207 21.9943 17.2585 20.9467 17.2585 19.7536C17.2585 18.6243 17.5888 17.6193 18.2493 16.7386C18.9098 15.8509 19.8153 15.1548 20.9659 14.6506C22.1236 14.1392 23.4375 13.8835 24.9077 13.8835C26.3778 13.8835 27.6882 14.1392 28.8388 14.6506C29.9964 15.1619 30.9055 15.8615 31.5661 16.7493C32.2266 17.63 32.5604 18.6314 32.5675 19.7536C32.5604 20.9538 32.1911 22.0014 31.4595 22.8963C30.728 23.7912 29.7905 24.3558 28.647 24.5902V24.7393C29.5206 24.8814 30.3125 25.2081 31.0227 25.7195C31.7401 26.2237 32.3082 26.8594 32.7273 27.6264C33.1534 28.3864 33.37 29.2209 33.3771 30.13C33.37 31.3089 33.0043 32.3636 32.2798 33.294C31.5554 34.2244 30.554 34.9595 29.2756 35.4993C28.0043 36.032 26.5483 36.2983 24.9077 36.2983ZM24.9077 32.9105C25.6392 32.9105 26.2784 32.7791 26.8253 32.5163C27.3722 32.2464 27.7983 31.8771 28.1037 31.4084C28.4162 30.9325 28.5724 30.3857 28.5724 29.7678C28.5724 29.1357 28.4126 28.5781 28.093 28.0952C27.7734 27.6051 27.3402 27.2216 26.7933 26.9446C26.2464 26.6605 25.6179 26.5185 24.9077 26.5185C24.2045 26.5185 23.576 26.6605 23.022 26.9446C22.468 27.2216 22.0313 27.6051 21.7116 28.0952C21.3991 28.5781 21.2429 29.1357 21.2429 29.7678C21.2429 30.3857 21.3956 30.9325 21.701 31.4084C22.0064 31.8771 22.4361 32.2464 22.9901 32.5163C23.544 32.7791 24.1832 32.9105 24.9077 32.9105ZM24.9077 23.1626C25.5185 23.1626 26.0618 23.0384 26.5376 22.7898C27.0135 22.5412 27.3864 22.1967 27.6562 21.7564C27.9261 21.3161 28.0611 20.8082 28.0611 20.233C28.0611 19.6648 27.9261 19.1676 27.6562 18.7415C27.3864 18.3082 27.017 17.9709 26.5483 17.7294C26.0795 17.4808 25.5327 17.3565 24.9077 17.3565C24.2898 17.3565 23.7429 17.4808 23.267 17.7294C22.7912 17.9709 22.4183 18.3082 22.1484 18.7415C21.8857 19.1676 21.7543 19.6648 21.7543 20.233C21.7543 20.8082 21.8892 21.3161 22.1591 21.7564C22.429 22.1967 22.8018 22.5412 23.2777 22.7898C23.7536 23.0384 24.2969 23.1626 24.9077 23.1626Z" fill="white"/>
</svg>
